<svg xmlns="http://www.w3.org/2000/svg" viewBox="0 0 25 25.21"><defs><style>.cls-1{fill:#fff;}</style></defs><g id="_6" data-name="6"><path class="cls-1" d="M22.18,24.51a2.29,2.29,0,0,1-1.65-.66l-5.76-5.7a.57.57,0,0,1-.18-.44.52.52,0,0,1,.27-.4,9.19,9.19,0,0,0,1.29-1.06,8,8,0,0,0,1-1.24.63.63,0,0,1,.4-.26.59.59,0,0,1,.45.17l5.8,5.71a2.23,2.23,0,0,1,.67,1.63,2.14,2.14,0,0,1-.67,1.59A2.32,2.32,0,0,1,22.18,24.51ZM16,17.84l5.31,5.26a1.23,1.23,0,0,0,.85.35A1.25,1.25,0,0,0,23,23.1a1.18,1.18,0,0,0,0-1.68l-5.31-5.26a8.11,8.11,0,0,1-.76.89Z"/><path class="cls-1" d="M9.33,18.19h0a8.83,8.83,0,0,1-6.25-2.56,8.7,8.7,0,0,1,0-12.37,8.85,8.85,0,0,1,15,5.3,8.51,8.51,0,0,1-1.39,5.61,8.66,8.66,0,0,1-1.16,1.46,9,9,0,0,1-1.47,1.19A8.68,8.68,0,0,1,9.33,18.19Zm0-16.35a7.65,7.65,0,1,0,0,15.29h0a7.64,7.64,0,0,0,4.15-1.19,7.36,7.36,0,0,0,1.29-1.06,9.28,9.28,0,0,0,1-1.24A7.67,7.67,0,0,0,9.33,1.84Z"/><path class="cls-1" d="M14.06,13.07a1,1,0,0,1-.32-.09.56.56,0,0,1-.17-.75A5,5,0,0,0,12.9,6,5.17,5.17,0,0,0,5.71,6a.57.57,0,0,1-.8,0,.54.54,0,0,1,0-.79,6.22,6.22,0,0,1,8.74,0,6,6,0,0,1,1.79,3.71,6.14,6.14,0,0,1-1,3.93A.4.4,0,0,1,14.06,13.07Z"/></g></svg>